# xmcd CD database file
#
# Track frame offsets:
#	150
#	28275
#	56100
#	83662
#	103205
#	128302
#	153442
#	172690
#	195102
#
# Disc length: 2666 seconds
#
# Revision: 0
# Processed by: cddbd v1.5.1PL2 Copyright (c) Steve Scherf et al.
# Submitted via: CDex 1.51
#
DISCID=630a6809
DTITLE=DAVID MATTHEWS AND THE ELECTRIC BIRDS - DIGITAL LOVE
DYEAR=2006
DGENRE=Fusion
TTITLE0=Media
TTITLE1=Digital Love
TTITLE2=Electric Flight
TTITLE3=I Don't Care Much For Love
TTITLE4=99 Parsecs
TTITLE5=Some Trunk Funk
TTITLE6=Funky Apple
TTITLE7=Song Of The Setting Sun
TTITLE8=Media (Reprise)
EXTD=YEAR: 2006
EXTT0=
EXTT1=
EXTT2=
EXTT3=
EXTT4=
EXTT5=
EXTT6=
EXTT7=
EXTT8=
PLAYORDER=
